PathFileType	4	(X/Y/Z)	Kaydara	
DataRate	CameraRate	NumFrames	NumMarkers	Units	OrigDataRate	OrigDataStartFrame	OrigNumFrames	
60.00	60.00	4	74	mm	60.00	722	204	
Frame#	Time	Z_lasi			Z_rasi			Z_rpsi			Z_lpsi			Z_fneck			Z_bneck			Z_fhead			Z_rhead			Z_lhead			Z_rshld			Z_relbtop			Z_relbext			Z_relblow			Z_rwrext			Z_rwrtop			Z_rwrlow			Z_lshld			Z_lelbext			Z_lelblow			Z_lelbtop			Z_lwrext			Z_lwrtop			Z_lwrlow			Z_rtopleg			Z_ltopleg			Z_rkneefr			Z_rkneebk			Z_rkneeis			Z_lkneefr			Z_lknssbk			Z_lkneeis			Z_rankfr			Z_rankis			Z_rankbk			Z_lankfr			Z_lankbk			Z_lankis			N_lasi			N_rasi			N_rpsi			N_lpsi			N_fneck			N_bneck			N_fhead			N_rhead			N_lhead			N_rshld			N_relbtop			N_relbext			N_relblow			N_rwrext			N_rwrtop			N_rwrlow			N_lshld			N_lelbext			N_lelblow			N_lelbtop			N_lwrext			N_lwrtop			N_lwrlow			N_rtopleg			N_ltopleg			N_rkneefr			N_rkneebk			N_rkneeis			N_lkneefr			N_lknssbk			N_lkneeis			N_rankfr			N_rankis			N_rankbk			N_lankfr			N_lankbk			N_lankis			
		X1	Y1	Z1	X2	Y2	Z2	X3	Y3	Z3	X4	Y4	Z4	X5	Y5	Z5	X6	Y6	Z6	X7	Y7	Z7	X8	Y8	Z8	X9	Y9	Z9	X10	Y10	Z10	X11	Y11	Z11	X12	Y12	Z12	X13	Y13	Z13	X14	Y14	Z14	X15	Y15	Z15	X16	Y16	Z16	X17	Y17	Z17	X18	Y18	Z18	X19	Y19	Z19	X20	Y20	Z20	X21	Y21	Z21	X22	Y22	Z22	X23	Y23	Z23	X24	Y24	Z24	X25	Y25	Z25	X26	Y26	Z26	X27	Y27	Z27	X28	Y28	Z28	X29	Y29	Z29	X30	Y30	Z30	X31	Y31	Z31	X32	Y32	Z32	X33	Y33	Z33	X34	Y34	Z34	X35	Y35	Z35	X36	Y36	Z36	X37	Y37	Z37	X38	Y38	Z38	X39	Y39	Z39	X40	Y40	Z40	X41	Y41	Z41	X42	Y42	Z42	X43	Y43	Z43	X44	Y44	Z44	X45	Y45	Z45	X46	Y46	Z46	X47	Y47	Z47	X48	Y48	Z48	X49	Y49	Z49	X50	Y50	Z50	X51	Y51	Z51	X52	Y52	Z52	X53	Y53	Z53	X54	Y54	Z54	X55	Y55	Z55	X56	Y56	Z56	X57	Y57	Z57	X58	Y58	Z58	X59	Y59	Z59	X60	Y60	Z60	X61	Y61	Z61	X62	Y62	Z62	X63	Y63	Z63	X64	Y64	Z64	X65	Y65	Z65	X66	Y66	Z66	X67	Y67	Z67	X68	Y68	Z68	X69	Y69	Z69	X70	Y70	Z70	X71	Y71	Z71	X72	Y72	Z72	X73	Y73	Z73	X74	Y74	Z74	

26	12.017	-1423.98224	976.41411	63.15463	-1655.95276	995.50873	16.33481	-1589.15848	1052.59804	-172.08971	-1401.26617	1033.72368	-127.20270	-1445.74677	1431.27518	85.71047	-1465.71960	1509.48853	-4.12901	-1398.05817	1556.97815	209.19769	-1534.51645	1620.27679	89.51445	-1416.21948	1616.16486	32.76531	-1700.47379	1403.82858	-33.68110	-1768.34702	1119.99580	-114.18451	-1704.36462	1100.54375	-90.22450	-1780.37277	1135.46936	-32.01864	-1820.15396	870.74753	-40.07079	-1835.48477	879.29192	1.96445	-1793.27438	885.83656	20.83218	-1269.64500	1377.20566	12.67405	-1324.49585	1057.66609	-44.90581	-1247.98782	1071.64177	8.31491	-1255.45143	1048.95531	-70.64976	-1255.50949	840.59433	17.85533	-1258.00697	851.22475	58.54179	-1304.12704	854.54338	59.96868	-1700.67108	892.95464	-115.59853	-1363.87100	897.67464	4.72003	-1712.49634	424.04823	-116.46338	-1738.74512	488.03169	-179.10528	-1625.16083	466.90880	-140.97304	-1537.02454	419.68945	131.61774	-1462.97638	425.47749	83.55462	-1568.54797	437.14363	26.32284	-1645.01755	245.83433	-324.24843	-1576.72485	284.52730	-343.49655	-1636.92490	293.38182	-386.21651	-1522.42432	157.94024	62.30660	-1569.94720	161.90628	15.28583	-1595.74646	175.07158	84.01415	313.95786	967.72690	443.56728	532.72743	972.93938	507.98725	441.94805	1050.03479	737.10945	224.33456	1031.05598	635.26421	473.31512	1447.34512	477.52468	427.42310	1522.55875	595.45216	481.86844	1658.99826	376.65173	550.72025	1646.02737	540.40440	395.16659	1663.30917	524.24801	618.03268	1397.07138	666.20193	600.55206	1110.21278	801.19217	526.45798	1100.24551	763.60023	617.42302	1103.50243	730.67093	643.92998	857.28661	760.17334	682.74361	867.34535	727.47612	659.48334	870.94490	687.75932	237.99383	1445.11520	449.52499	130.16244	1098.29880	393.66802	230.97946	1135.44411	446.51066	161.55750	1158.29536	417.79022	173.91174	902.04788	374.81457	202.74624	911.47797	331.50143	247.01422	908.29216	355.05402	585.84816	868.18451	662.03293	205.92884	834.19044	521.37516	599.00398	456.90472	460.21339	578.53161	480.45315	573.84521	491.96304	455.29938	506.02776	344.03866	384.06391	518.49346	266.42370	456.76624	554.74277	383.17524	442.89055	610.68768	594.49379	149.63793	515.56347	524.43615	152.69032	538.00014	594.38057	146.84396	581.08589	168.04398	233.75301	763.00980	211.67419	286.99156	823.64983	236.73565	230.11002	782.41707 
27	12.033	-1421.46042	977.08977	78.60847	-1655.36148	996.86134	35.67318	-1588.84308	1052.64046	-154.15797	-1401.06171	1033.86078	-111.61877	-1444.01337	1432.77756	101.33518	-1466.20636	1511.27609	12.34005	-1392.87643	1557.79373	223.93816	-1532.40448	1621.66855	108.56880	-1415.98328	1617.83646	48.47250	-1701.27914	1404.66553	-11.74721	-1769.88678	1120.97633	-92.48126	-1705.40619	1101.59561	-69.85425	-1780.51285	1135.98145	-9.98784	-1819.27200	871.14227	-18.87040	-1833.98010	879.37225	23.54014	-1791.47552	886.04546	41.75300	-1269.53674	1379.71161	25.87409	-1323.96271	1059.31145	-29.02023	-1247.25090	1074.07303	22.44896	-1255.58640	1050.58319	-56.07369	-1254.12476	843.23273	34.72559	-1255.97084	854.26735	75.27339	-1300.52032	857.13585	75.64134	-1702.18628	894.64249	-91.38773	-1362.36343	897.28455	17.38334	-1721.36047	426.37253	-80.27097	-1749.19266	490.80429	-141.87766	-1635.11703	469.63181	-107.70686	-1536.47156	418.54431	139.53102	-1462.56058	423.87428	91.40600	-1568.07770	437.86530	34.74265	-1655.15533	252.05608	-295.31048	-1589.14566	293.03600	-314.39545	-1650.83420	301.56496	-354.80484	-1522.40097	158.03878	64.99778	-1569.86176	163.03719	17.92526	-1595.87845	174.83105	86.73256	322.06627	972.77756	429.43195	542.64004	975.72479	490.53444	456.04153	1054.18724	721.34323	237.43645	1036.77605	622.41234	481.11153	1452.02545	460.06508	437.76733	1527.27127	579.38007	487.79743	1664.14032	359.29256	560.07648	1650.49667	521.43623	404.21394	1668.30414	508.68946	630.53513	1402.92526	645.19592	617.74120	1114.43214	771.42494	543.52303	1105.34309	743.06206	632.58411	1108.20068	707.43820	659.76250	861.43127	739.84810	696.94832	870.71861	705.18806	671.94130	873.56339	666.31165	245.11238	1448.97324	437.93880	134.94198	1101.93436	382.82070	236.06163	1137.84821	434.70104	166.03441	1163.16254	407.90524	155.11056	905.31876	373.78559	181.84313	910.66254	328.36021	226.98009	904.59259	349.13525	596.38184	870.43976	646.70235	216.63309	839.71710	506.02032	600.97435	454.94991	452.36000	585.22568	481.43631	566.47324	495.36446	455.58247	501.32656	359.99290	391.59519	481.87885	283.28400	464.41059	519.98253	399.09184	449.51309	573.19633	593.41293	148.76713	512.58591	524.03461	153.19080	537.02267	595.56583	147.16925	578.09250	188.78483	244.63287	733.10402	233.71922	297.49315	791.88492	257.75467	240.18250	750.66444 
28	12.050	-1418.58215	977.92358	93.97662	-1654.32541	998.82645	54.92118	-1589.67102	1053.06564	-136.05553	-1401.53885	1034.73976	-96.62779	-1441.83334	1434.35287	116.30094	-1466.67648	1513.17581	28.42492	-1388.01895	1558.53760	238.33843	-1530.64041	1622.92419	127.28655	-1416.01807	1619.93973	63.83837	-1701.78024	1405.10834	9.30614	-1771.90643	1121.58424	-70.33769	-1706.90918	1102.11670	-50.03274	-1780.42389	1136.14868	12.36531	-1818.89130	871.28288	2.91977	-1832.57538	879.17923	45.67746	-1789.59305	885.93765	62.89442	-1269.23378	1382.20551	37.81155	-1323.70422	1060.94910	-14.22791	-1246.31531	1076.67343	36.02761	-1255.82809	1052.21291	-42.12330	-1252.49046	846.10466	51.30917	-1253.66798	857.60376	91.75646	-1298.77640	860.78941	93.95261	-1704.11499	896.24619	-67.41958	-1361.11023	897.65167	29.56896	-1728.53546	429.27227	-44.10595	-1757.62848	493.96416	-104.82893	-1642.94037	471.94050	-74.25620	-1535.20508	418.15849	147.06512	-1461.40625	423.61252	98.47884	-1567.30286	439.08638	42.77131	-1667.04025	259.01566	-263.20156	-1601.70944	300.79325	-284.62637	-1664.02863	309.05552	-322.77870	-1522.14020	158.17200	66.94706	-1569.72931	164.25716	19.88975	-1595.88165	174.81497	89.14245	330.70751	979.47479	414.88930	551.43139	980.47165	473.23196	470.04883	1058.64342	705.16960	249.50512	1043.18581	609.41048	487.83569	1457.51709	442.79831	447.33551	1532.69257	563.02105	492.76222	1669.38141	341.33690	568.59688	1655.68314	502.25983	412.57347	1673.86337	493.84777	642.42287	1409.76913	624.38343	633.73482	1119.88098	741.33804	559.63085	1111.73157	724.03496	646.89514	1114.04007	684.15672	674.85359	867.14531	719.69345	710.06065	875.48523	683.20938	683.22372	877.62665	645.33173	251.68385	1453.18695	426.31485	137.01022	1106.81320	373.05241	238.48227	1141.51993	423.43994	167.75024	1169.24843	399.62975	137.78549	912.44492	374.26926	161.88122	914.35028	326.83659	207.41928	905.39360	345.12169	605.96985	873.09746	632.08839	226.65596	846.39694	490.50915	602.27257	453.07014	445.82649	591.17989	482.44263	560.26764	498.24081	456.03062	498.71410	374.05251	401.03542	445.46394	298.86845	472.94792	486.99265	415.61180	456.45683	537.24098	592.23255	147.90804	510.36610	523.65540	153.51520	536.84326	597.13879	147.01256	575.25318	211.24580	251.48703	701.20651	256.03252	304.09964	758.88840	280.48187	247.04178	716.58058 
29	12.067	-1416.02615	978.80745	108.33644	-1652.61673	1001.00464	74.60703	-1591.84875	1054.33434	-117.21478	-1402.86972	1036.22681	-82.64307	-1439.76654	1435.73807	131.05458	-1467.27676	1514.84283	44.05530	-1383.50983	1559.29169	252.38825	-1529.11301	1624.01871	145.57623	-1416.27792	1621.84402	79.09836	-1702.11533	1405.28229	29.71662	-1773.95844	1122.05421	-48.08505	-1708.33405	1102.38823	-29.91818	-1779.97406	1136.15807	34.85811	-1818.92456	871.40968	25.13800	-1831.40671	879.07356	68.48470	-1787.94968	885.73555	84.35981	-1268.54195	1384.98825	49.04383	-1322.79282	1062.73727	1.55810	-1245.17960	1079.38988	48.66969	-1256.05103	1054.06898	-28.92120	-1250.88150	849.12056	67.42976	-1250.98175	861.42387	107.80446	-1296.22589	864.55193	111.26123	-1705.92819	897.67845	-44.25046	-1360.19699	898.21098	41.02941	-1734.37958	432.42626	-7.95627	-1764.35013	497.32700	-67.93194	-1649.09332	474.36378	-40.67442	-1533.67920	417.33868	154.54212	-1460.36270	423.83766	104.97779	-1566.67450	440.20622	50.46077	-1678.83179	264.14915	-228.98958	-1613.72116	305.86960	-253.16389	-1676.68945	314.28751	-289.26310	-1522.09015	158.40100	68.87059	-1569.50500	165.29318	22.44201	-1595.86349	174.79012	91.39025	339.34074	987.50496	400.63583	559.58065	986.94702	455.72014	483.46565	1063.33290	689.02618	261.73151	1049.59366	596.17970	494.19888	1463.74222	425.25829	456.54354	1538.63937	546.79958	496.20632	1675.80566	323.36643	575.67448	1661.23657	482.91740	419.68327	1679.42062	478.32047	653.66783	1417.33337	603.69373	648.87390	1125.95001	711.09215	574.92878	1118.99574	705.62492	660.16113	1120.72014	661.43204	689.14993	873.68782	699.78394	722.53151	881.43776	661.13113	693.75755	883.02574	624.59984	257.70073	1457.85461	414.84219	136.97381	1112.80106	364.17965	238.71351	1146.32103	412.47807	167.44617	1176.42311	392.84607	122.90424	922.20726	375.55710	143.54024	921.12572	326.19591	189.51410	909.65881	341.59000	616.16470	876.48781	615.96348	235.75939	854.12857	474.48910	604.00585	451.94717	441.52718	594.70829	483.30383	555.08698	500.59341	457.13753	496.32912	386.76533	411.79466	409.58038	312.07123	481.49521	455.25806	430.41321	464.68803	501.90582	591.73237	147.84259	508.72208	523.56041	154.32857	535.94463	597.97741	147.47579	573.49548	234.15762	253.66886	667.13150	280.15526	305.81211	724.80690	303.81367	250.14845	680.56801 
